<?xml version="1.0" encoding="UTF-8"?>
<svg width="193px" height="193px" viewBox="0 0 193 193" version="1.1" xmlns="http://www.w3.org/2000/svg" xmlns:xlink="http://www.w3.org/1999/xlink">
    <title>win</title>
    <g id="Page-1" stroke="none" stroke-width="1" fill="none" fill-rule="evenodd">
        <g id="win">
            <circle id="Oval" fill="#1E345E" cx="96.5" cy="96.5" r="96.5"></circle>
            <path d="M137.485535,48 L137.485535,48.0003601 C137.098219,48.0011543 136.71794,48.103024 136.382934,48.2957268 L136.381205,48.2940121 C136.381205,48.2940121 130.352028,51.7223027 127.792472,53.1237088 C125.69459,54.2723614 125.542284,55.6548195 125.554512,56.1219263 C125.542232,56.589028 125.69459,57.9714998 127.792472,59.1201438 C130.352028,60.52155 136.381205,63.9498422 136.381205,63.9498422 L136.382934,63.9478361 C136.71794,64.1405394 137.098219,64.2424098 137.485535,64.2432045 C138.703898,64.2432045 139.691499,63.2638986 139.691411,62.0560765 C139.690576,61.2747815 139.269368,60.5532717 138.586441,60.1633121 L138.588171,60.1599686 L131.15946,56.1216023 L138.588499,52.0832359 L138.58677,52.0798924 C139.269697,51.6899329 139.690904,50.968423 139.69174,50.187128 C139.69174,48.9793059 138.704227,48 137.485864,48 L137.485535,48 Z M86.9702695,49.1707727 C84.9585229,49.1707727 83.0291491,49.9629089 81.6065977,51.3730903 C80.1840464,52.7832716 79.384822,54.6959181 79.384822,56.6902601 C79.384822,58.6846599 80.1839174,60.5973923 81.6064785,62.007646 C83.0290395,63.4178997 84.9584644,64.2100817 86.9702695,64.2100817 C88.9820162,64.2100817 90.9113545,63.4177719 92.3338426,62.0075278 C93.7563306,60.5972837 94.5553798,58.684602 94.5553798,56.6902601 C94.5553798,52.5373844 91.1593875,49.1707727 86.9702695,49.1707727 L86.9702695,49.1707727 Z M164.918469,74.2375154 C162.996631,74.2403094 161.189221,75.1435218 160.043918,76.673462 L160.033368,76.6657634 L147.984474,93.460526 L148.00644,93.4675558 C147.232697,94.4960279 146.810107,95.7423906 146.800134,97.0253643 C146.810176,98.3082264 147.232763,99.5544645 148.00644,100.582847 L147.984474,100.59022 L160.033368,117.384653 L160.043918,117.37728 C161.189291,118.907096 162.99669,119.81018 164.918469,119.812896 C166.531352,119.812896 168.078196,119.177828 169.218708,118.047245 C170.359219,116.916662 171,115.383234 171,113.784305 C170.997424,112.541932 170.607734,111.330686 169.884237,110.316256 L169.891328,110.311284 L160.352335,97.0254157 L169.891328,83.7395713 L169.884237,83.7342218 C170.60767,82.7198826 170.997357,81.5087594 171,80.266497 C171,78.6675113 170.359345,77.1339994 169.218825,76.0033456 C168.078304,74.8726917 166.531409,74.2375154 164.918469,74.2375154 L164.918469,74.2375154 Z M79.0541092,128.950548 C77.3674499,128.950548 76,130.372129 76,132.125914 C76,133.33634 76.663316,134.441044 77.7082876,134.974441 C95.4000862,145.974945 110.949812,144.976426 110.949812,144.976426 C110.949812,144.976426 126.499203,145.974962 144.190991,134.974441 C145.23598,134.441044 145.898509,133.33634 145.899288,132.125914 C145.899288,130.372129 144.53182,128.950548 142.845178,128.950548 C142.201087,128.952263 141.573772,129.164788 141.053119,129.559028 C141.053085,129.559011 140.786575,129.734501 140.786575,129.734501 C140.786575,129.734501 127.518958,138.982968 110.949812,138.700024 C94.3806586,138.982968 81.1127039,129.734501 81.1127039,129.734501 C81.1127039,129.734501 80.8462065,129.559011 80.8461737,129.559028 C80.3255057,129.164788 79.6981959,128.951834 79.0541092,128.950548 Z" id="path828" fill="#FFFFFF" fill-rule="nonzero"></path>
            <path d="M120.507316,74 C119.948462,74.0042756 119.390049,74.0326443 118.833624,74.0850534 C118.530978,74.114705 118.229064,74.1514601 117.928131,74.1952884 C117.579955,74.2387571 117.233012,74.2916524 116.887681,74.3539164 C116.608855,74.4103252 116.331292,74.4728523 116.055193,74.5414526 C115.693438,74.6233425 115.334085,74.7155764 114.977573,74.8180419 C114.723837,74.896994 114.471736,74.9811436 114.221428,75.0704379 C113.853305,75.1931447 113.488914,75.3268521 113.128741,75.4713814 C112.89671,75.5701827 112.66661,75.6734914 112.438571,75.7812493 C112.07216,75.9453404 111.710884,76.1207465 111.355261,76.307217 C111.147058,76.4220618 110.940965,76.5407171 110.737085,76.6631235 C110.375108,76.8704263 110.019849,77.0893267 109.671855,77.3194872 C109.490541,77.4450355 109.31136,77.5736594 109.13439,77.7053035 C108.780339,77.9574728 108.434781,78.2214428 108.098295,78.4967718 C107.943618,78.6289152 107.791008,78.7634769 107.640523,78.9004078 C107.300092,79.1975662 106.970044,79.5064973 106.650975,79.8266426 C106.520273,79.9633365 106.391557,80.1019287 106.264867,80.2423752 C105.94764,80.5801123 105.64249,80.9290727 105.349996,81.2885939 C105.238145,81.4321213 105.128298,81.5772101 105.020486,81.7238176 C104.732608,82.0988538 104.45839,82.4842539 104.198373,82.8792569 C104.108208,83.0227263 104.019906,83.1673665 103.933489,83.3131409 C103.678274,83.7239394 103.43834,84.144104 103.214184,84.5727669 C103.141817,84.7185191 103.071266,84.8651724 103.002548,85.0126927 C102.785944,85.453863 102.585995,85.9030741 102.403126,86.3593686 C102.348855,86.5031441 102.296276,86.6475567 102.245398,86.7925762 C102.071031,87.2597106 101.914531,87.7333674 101.77624,88.2125081 C101.737145,88.3590467 101.69975,88.5060368 101.664062,88.6534484 C101.536473,89.1375064 101.427448,89.6263021 101.337228,90.1187556 C101.313458,90.2654781 101.291355,90.4124677 101.270923,90.5596959 C101.191201,91.0585895 101.130766,91.5603956 101.089757,92.0639853 C101.063217,92.384767 101.04457,92.7061573 101.033833,93.0278626 L101.029297,93.0278626 L101.029297,93.155241 C101.02309,93.2910744 101.018295,93.426969 101.014911,93.5629027 C101.016639,93.6161246 101.018583,93.6693392 101.020743,93.7225452 L101.022687,93.7225452 L101.029167,93.7225452 L101.029167,114.176037 L101.031759,114.176037 C101.06936,117.402694 103.685777,119.998885 106.901057,119.999961 C110.115949,119.998336 112.731762,117.402304 112.769357,114.176037 L112.772597,114.176037 L112.772597,114.107138 L112.772597,93.0665132 C112.994524,89.5965693 115.481772,86.6947824 118.867269,85.9560708 C118.886561,85.9510752 118.905872,85.9461541 118.925202,85.9413078 C119.118739,85.9029435 119.313664,85.872001 119.509551,85.8485477 C119.573056,85.8381285 119.636688,85.8285025 119.700431,85.819672 C119.858177,85.8057345 120.016311,85.796647 120.174611,85.7924221 C120.28521,85.7844475 120.395967,85.7788531 120.506804,85.775643 C120.50702,85.775643 120.507236,85.775643 120.507452,85.775643 C120.63406,85.7789078 120.760569,85.7852831 120.886866,85.7947634 C121.028263,85.7989509 121.169518,85.8070183 121.310475,85.8189566 C121.385538,85.8292795 121.460446,85.8407053 121.535175,85.8532303 C121.720575,85.8758889 121.905099,85.9052586 122.088387,85.9412818 C122.113086,85.947425 122.137754,85.9536902 122.162391,85.960077 C122.392024,86.0095222 122.619301,86.0694056 122.843521,86.1395423 C125.894115,87.1103017 128.037871,89.8611919 128.241659,93.0664872 L128.241659,114.107112 L128.241659,114.176011 L128.244899,114.176011 C128.282495,117.402278 130.898307,119.99831 134.113199,119.999961 C137.328482,119.998862 139.944903,117.402671 139.982504,114.176011 L139.985096,114.176011 L139.985096,93.7225192 L139.991576,93.7225192 L139.994168,93.7225192 C139.996328,93.6693132 139.998272,93.6160986 140,93.5628767 C139.996616,93.426943 139.991821,93.2910484 139.985614,93.155215 L139.985614,93.0278366 L139.981078,93.0278366 C139.970335,92.7062442 139.951688,92.3849667 139.925154,92.0642974 C139.883859,91.5557343 139.822754,91.0489873 139.741979,90.545219 C139.722513,90.4052968 139.701538,90.2655903 139.679057,90.1261241 C139.588271,89.6293465 139.478349,89.1362836 139.34954,88.648044 C139.314363,88.5026629 139.277525,88.3576915 139.239034,88.2131585 C139.100651,87.7337854 138.94404,87.2599026 138.769545,86.7925502 C138.718777,86.6476431 138.66631,86.5033411 138.612155,86.3596743 C138.428152,85.9005996 138.226861,85.4486966 138.008715,85.0049404 C137.94169,84.8611579 137.872924,84.7181994 137.802432,84.5760967 C137.577618,84.1456921 137.336903,83.7238441 137.080787,83.3114304 C136.994579,83.1662244 136.9065,83.0221458 136.816571,82.8792309 C136.556554,82.4842279 136.282335,82.0988278 135.994457,81.7237916 C135.886646,81.5771841 135.776798,81.4320953 135.664947,81.2885679 C135.372454,80.9290467 135.067304,80.5800863 134.750077,80.2423492 C134.623387,80.1019027 134.49467,79.9633105 134.363969,79.8266166 C134.0449,79.5064713 133.714852,79.1975402 133.374421,78.9003818 C133.223935,78.7634509 133.071326,78.6288891 132.916649,78.4967458 C132.579316,78.2206855 132.232865,77.9560424 131.877877,77.7032614 C131.702319,77.5727876 131.524589,77.4452849 131.34476,77.3208074 C130.994732,77.0891664 130.637348,76.8689198 130.273167,76.6604115 C130.071474,76.5393172 129.867615,76.4218939 129.661691,76.308199 C129.30466,76.1209673 128.941931,75.9448881 128.574027,75.7802153 C128.346868,75.6728276 128.117663,75.5698551 127.886539,75.4713554 C127.526255,75.3268197 127.161752,75.1931123 126.793516,75.0704119 C126.543208,74.9811176 126.291106,74.896968 126.037371,74.8180158 C125.680861,74.7155505 125.32151,74.6233166 124.959757,74.5414266 C124.683656,74.4728262 124.406091,74.4102991 124.127263,74.3538904 C123.781932,74.2916264 123.434989,74.2387311 123.086813,74.1952624 C122.78588,74.151434 122.483966,74.114679 122.181319,74.0850273 C121.624894,74.0326182 121.066481,74.0042496 120.507627,74 C120.507517,74 120.507407,74 120.507297,74 L120.507316,74 Z M27.8716437,74.3904858 C24.6288277,74.3904858 22,77.0288607 22,80.2833736 C22.0016424,80.7204646 22.0517355,81.1560155 22.149355,81.5819883 L22.1366538,81.5845898 L30.4642499,115.653688 L30.4799967,115.649786 C31.1732315,118.214831 33.4915027,119.99673 36.139674,120 C38.6961942,119.996951 40.9569273,118.334124 41.7296896,115.888401 L41.737077,115.92469 L47.9439335,98.1463928 L54.1511204,115.92469 L54.1585078,115.888401 C54.9312708,118.334126 57.1920072,119.996954 59.7485298,120 C62.3966987,119.996727 64.7149666,118.214828 65.4082007,115.649786 L65.4239475,115.653688 L73.7515436,81.5845898 L73.7388424,81.5819883 C73.8364597,81.1560152 73.8865506,80.7204644 73.8881909,80.2833736 C73.8881909,77.0288607 71.2593633,74.3904858 68.0165472,74.3904858 C65.1353444,74.3941575 62.682425,76.495293 62.2262684,79.3504206 L62.2128545,79.3478192 L58.763667,93.4188167 L53.4880953,78.2942124 L53.4683308,78.3013013 C53.4647876,78.2925563 53.4612235,78.2838198 53.4576385,78.275092 C53.4026883,78.1252401 53.341692,77.9776917 53.2748005,77.832812 C53.2598381,77.7981596 53.2445442,77.7636523 53.2289209,77.729295 C53.160152,77.5876707 53.0857517,77.4488711 53.0058993,77.3132308 C52.9868198,77.2789801 52.9674,77.2449215 52.9476426,77.2110601 C52.8663321,77.0791947 52.7798668,76.9506019 52.6884487,76.825582 C52.6645901,76.7912672 52.640368,76.7572083 52.6157866,76.7234113 C52.5246753,76.6041743 52.4290532,76.4884784 52.3291297,76.3765773 C52.2978743,76.3400049 52.2661731,76.3038186 52.2340332,76.2680266 C52.1337484,76.1613193 52.0295287,76.058407 51.9215918,75.959505 C51.8858512,75.9253277 51.8496824,75.8916041 51.8130943,75.8583423 C51.7051163,75.7643367 51.5937538,75.6743197 51.4792294,75.5884713 C51.4362707,75.5547038 51.392845,75.521539 51.348965,75.4889865 C51.2376155,75.4104232 51.1235777,75.3357694 51.0070583,75.2651605 C50.9552127,75.2321873 50.9028551,75.200032 50.8500049,75.1687065 C50.7359529,75.1045614 50.6197981,75.0442573 50.5017346,74.9878949 C50.4427307,74.9579848 50.3832278,74.9290767 50.3232512,74.9011832 C50.2097497,74.8517297 50.0947189,74.8058893 49.9783312,74.7637308 C49.9091664,74.736867 49.8395007,74.7113209 49.7693716,74.687106 C49.6560805,74.6510302 49.5417241,74.6184151 49.4264604,74.5893057 C49.3520566,74.5686636 49.2772544,74.5494961 49.2020975,74.5318144 C49.0898651,74.5081008 48.9769645,74.4876926 48.863541,74.470616 C48.7819915,74.4564377 48.7001524,74.4439915 48.6180786,74.4332857 C48.5118349,74.4220894 48.4053066,74.4138051 48.2986126,74.4084421 C48.1810535,74.3989426 48.0632359,74.393 47.9453202,74.3904858 C47.9444562,74.3904858 47.9435922,74.3904858 47.9427281,74.3904858 C47.8222353,74.3930595 47.7018459,74.3992191 47.5817308,74.4090925 C47.4794068,74.4143642 47.3772379,74.4223229 47.2753289,74.4329605 C47.186966,74.4442796 47.0988712,74.4576153 47.0111129,74.4729573 C46.9037774,74.4892526 46.7969129,74.5085322 46.6906425,74.5307738 C46.6117648,74.5491949 46.5332753,74.5692518 46.4552244,74.5909316 C46.3421153,74.6196098 46.2298829,74.6516648 46.1186767,74.687054 C46.0485476,74.7112688 45.9788819,74.736815 45.9097172,74.7636787 C45.7933294,74.8058373 45.6782987,74.8516777 45.5647971,74.9011311 C45.5048206,74.9290247 45.4453176,74.9579327 45.3863138,74.9878429 C45.2684824,75.0441076 45.1525525,75.1042989 45.0387174,75.1683163 C44.9841567,75.2007081 44.9301223,75.2339846 44.8766354,75.2681327 C44.7624524,75.3373316 44.6506521,75.4104153 44.5414291,75.4872566 C44.4953833,75.5213158 44.4498358,75.5560484 44.4048012,75.5914434 C44.2916894,75.6763811 44.1816687,75.765388 44.074954,75.8582903 C44.0383659,75.8915521 44.0021972,75.9252757 43.9664565,75.9594529 C43.8587546,76.0582572 43.7547599,76.1610564 43.6546891,76.2676364 C43.6216279,76.3044141 43.58903,76.3416086 43.5569033,76.3792112 C43.4582063,76.4897445 43.3637056,76.6039805 43.2736032,76.7216749 C43.247756,76.7571251 43.2223046,76.7928643 43.1972538,76.8288858 C43.1068265,76.9527467 43.0212575,77.0801074 42.9407427,77.2106764 C42.9204055,77.245422 42.9004239,77.2803761 42.8808012,77.315533 C42.8018277,77.4500023 42.7282089,77.5875675 42.6601189,77.7279033 C42.6436911,77.7635885 42.6276195,77.7994379 42.6119065,77.8354459 C42.5456551,77.9793592 42.4852172,78.1258971 42.4307403,78.2747018 C42.4270251,78.2835376 42.4233314,78.2923824 42.4196593,78.3012363 L42.3998947,78.2941474 L37.124323,93.4187516 L33.675142,79.3477541 L33.6617281,79.3503556 C33.2055715,76.495228 30.7526521,74.3940924 27.8714493,74.3904858 L27.8716437,74.3904858 Z M87.4587893,74.3908825 C84.2558563,74.3931872 81.645686,76.9712037 81.5921612,80.1852416 L81.5869771,80.1852416 L81.5869771,80.2837118 L81.5869771,114.107138 L81.5869771,114.512784 L81.6013631,114.512784 C81.8137859,117.602339 84.3728431,119.999961 87.4586144,119.999961 C90.5420618,119.99653 93.0975715,117.600014 93.3098326,114.512784 L93.3302451,114.512784 L93.3302451,114.107138 L93.3302451,80.2837118 L93.3302451,80.1852416 L93.3270051,80.1852416 C93.2734689,76.9705537 90.6622928,74.3922758 87.4587116,74.3908825 L87.4587893,74.3908825 Z" id="path828-4" fill="#FBC509" fill-rule="nonzero"></path>
        </g>
    </g>
</svg>